<?xml version="1.0" encoding="UTF-8"?>
<!DOCTYPE svg PUBLIC "-//W3C//DTD SVG 1.1//EN" "http://www.w3.org/Graphics/SVG/1.1/DTD/svg11.dtd">
<!-- Creator: CorelDRAW 2018 (64 Bit) -->
<svg xmlns="http://www.w3.org/2000/svg" xml:space="preserve" width="175mm" height="131.3mm" version="1.1" shape-rendering="geometricPrecision" text-rendering="geometricPrecision" image-rendering="optimizeQuality" fill-rule="evenodd" clip-rule="evenodd"
viewBox="0 0 175 131.3"
 xmlns:xlink="http://www.w3.org/1999/xlink">
 <g id="Capa_x0020_1">
  <metadata id="CorelCorpID_0Corel-Layer"/>
  <g id="Gmail.svg">
   <g id="_1427462914784">
    <polygon fill="#EA4335" points="39.8449,12.4901 39.8448,63.9264 87.2866,99.6611 135.1551,63.9264 135.205,12.4901 87.2866,48.2622 "/>
    <path fill="#4285F4" d="M39.8448 131.3187l-28.2746 0c-6.0104,0 -11.5623,-5.5519 -11.5623,-10.766l0 -86.704 39.8369 30.0777 0 67.3923z"/>
    <path fill="#34A853" d="M135.1551 131.3187l28.2746 0c6.0104,0 11.5623,-5.5519 11.5623,-10.766l0 -86.704 -39.8369 30.0777 0 67.3923z"/>
    <path fill="#FBBC04" d="M135.1551 63.9264l39.8369 -30.0777 0.0079 -12.3216c0.0151,-23.7212 -20.3583,-23.5469 -25.8204,-19.4692l-13.9745 10.4322 -0.0499 51.4363z"/>
    <path fill="#C5221F" d="M39.8449 63.9264l-39.8369 -30.0777 -0.0079 -12.3216c-0.0151,-23.7212 20.3583,-23.5469 25.8204,-19.4692l13.9745 10.4322 0.0499 51.4363z"/>
   </g>
  </g>
 </g>
</svg>
