<?xml version="1.0" encoding="UTF-8"?>
<!DOCTYPE svg PUBLIC "-//W3C//DTD SVG 1.1//EN" "http://www.w3.org/Graphics/SVG/1.1/DTD/svg11.dtd">
<!-- Creator: CorelDRAW 2018 (64 Bit) -->
<svg xmlns="http://www.w3.org/2000/svg" xml:space="preserve" width="175mm" height="175mm" version="1.1" shape-rendering="geometricPrecision" text-rendering="geometricPrecision" image-rendering="optimizeQuality" fill-rule="evenodd" clip-rule="evenodd"
viewBox="0 0 175 175"
 xmlns:xlink="http://www.w3.org/1999/xlink"
 data-name="Layer 1">
 <g id="Capa_x0020_1">
  <metadata id="CorelCorpID_0Corel-Layer"/>
  <g id="Instagram_Glyph_White.svg">
   <g>
    <path fill="#C4C3C4" d="M51.2621 0.6123c-9.31,0.4393 -15.6678,1.925 -21.2257,4.109 -5.7523,2.2418 -10.6278,5.25 -15.4788,10.1185 -4.851,4.8685 -7.8382,9.7475 -10.0642,15.5085 -2.1543,5.5703 -3.6138,11.9333 -4.025,21.2485 -0.4112,9.3152 -0.5023,12.3095 -0.4568,36.071 0.0455,23.7615 0.1505,26.74 0.602,36.0745 0.4445,9.3083 1.925,15.6643 4.109,21.224 2.2453,5.7523 5.25,10.626 10.1203,15.4788 4.8703,4.8528 9.7457,7.8329 15.5207,10.0624 5.565,2.1508 11.9298,3.6173 21.2433,4.025 9.3135,0.4077 12.3113,0.5023 36.0657,0.4568 23.7544,-0.0455 26.7453,-0.1505 36.078,-0.5933 9.3327,-0.4428 15.6555,-1.9337 21.217,-4.1072 5.7523,-2.2505 10.6295,-5.25 15.4788,-10.122 4.8493,-4.872 7.8347,-9.7545 10.0589,-15.519 2.156,-5.565 3.6208,-11.9298 4.025,-21.2362 0.4078,-9.3398 0.504,-12.3218 0.4585,-36.0797 -0.0455,-23.7579 -0.1523,-26.7365 -0.595,-36.0675 -0.4427,-9.331 -1.925,-15.6678 -4.1073,-21.231 -2.2488,-5.7523 -5.25,-10.6225 -10.1185,-15.4788 -4.8685,-4.8563 -9.7544,-7.84 -15.5171,-10.059 -5.5685,-2.1543 -11.9298,-3.6225 -21.2432,-4.025 -9.3134,-0.4025 -12.3113,-0.5058 -36.0746,-0.4603 -23.7633,0.0455 -26.7383,0.147 -36.071,0.602l0 0zm1.022 158.179c-8.5313,-0.371 -13.1635,-1.7885 -16.2505,-2.975 -4.088,-1.575 -7,-3.479 -10.0765,-6.5258 -3.0765,-3.0468 -4.9665,-5.9693 -6.5625,-10.0485 -1.1988,-3.087 -2.6425,-7.714 -3.0415,-16.2453 -0.434,-9.2208 -0.525,-11.9893 -0.5758,-35.35 -0.0508,-23.3607 0.0385,-26.1257 0.4428,-35.35 0.364,-8.5243 1.7903,-13.1618 2.975,-16.247 1.575,-4.0933 3.472,-7 6.5258,-10.0748 3.0538,-3.0748 5.9675,-4.9683 10.0503,-6.5643 3.0835,-1.204 7.7105,-2.6355 16.2383,-3.0415 9.2278,-0.4375 11.9928,-0.525 35.35,-0.5758 23.3572,-0.0508 26.1293,0.0368 35.3605,0.4428 8.5243,0.371 13.1635,1.7833 16.2453,2.975 4.0898,1.575 7,3.4668 10.0748,6.5258 3.0748,3.059 4.97,5.9623 6.566,10.0538 1.2058,3.0748 2.6373,7.7 3.0398,16.233 0.4393,9.2278 0.539,11.9945 0.581,35.35 0.042,23.3555 -0.0403,26.1293 -0.4445,35.35 -0.3728,8.5313 -1.7868,13.1653 -2.975,16.2558 -1.575,4.0863 -3.4738,7 -6.5293,10.073 -3.0555,3.073 -5.9658,4.9665 -10.0503,6.5625 -3.08,1.2023 -7.7123,2.6373 -16.233,3.0433 -9.2278,0.434 -11.9928,0.525 -35.3588,0.5758 -23.366,0.0508 -26.1222,-0.0438 -35.35,-0.4428l-0.0019 0zm71.3318 -118.0567c0.0089,5.7919 4.7083,10.4824 10.4999,10.4824 5.798,0 10.5,-4.702 10.5,-10.5 0,-5.798 -4.702,-10.5 -10.5,-10.5 -0.0064,0 -0.0141,0 -0.0205,0 -5.7903,0.0103 -10.4795,4.7097 -10.4795,10.5 0,0.0051 0,0.0128 0,0.0179l0.0001 -0.0003zm-81.0425 46.8527c0.049,24.815 20.202,44.8857 45.0117,44.8385 24.8097,-0.0472 44.8945,-20.1985 44.8472,-45.0135 -0.0473,-24.815 -20.2055,-44.891 -45.0187,-44.842 -24.8132,0.049 -44.8875,20.2055 -44.8402,45.017l0 0zm15.7605 -0.0315c0,-0.0186 0,-0.04 0,-0.0577 0,-16.1059 13.0613,-29.1672 29.1672,-29.1672 16.1058,0 29.1671,13.0613 29.1671,29.1672 0,16.0844 -13.0257,29.1386 -29.1102,29.1671 -0.0178,0.0001 -0.0427,0.0001 -0.0604,0.0001 -16.0826,0 -29.1353,-13.0278 -29.1638,-29.1104l0.0001 0.0009zm0 0l0 0 0 0z"/>
   </g>
  </g>
 </g>
</svg>
