<?xml version="1.0" encoding="UTF-8"?>
<!DOCTYPE svg PUBLIC "-//W3C//DTD SVG 1.1//EN" "http://www.w3.org/Graphics/SVG/1.1/DTD/svg11.dtd">
<!-- Creator: CorelDRAW 2018 (64 Bit) -->
<svg xmlns="http://www.w3.org/2000/svg" xml:space="preserve" width="175mm" height="175mm" version="1.1" shape-rendering="geometricPrecision" text-rendering="geometricPrecision" image-rendering="optimizeQuality" fill-rule="evenodd" clip-rule="evenodd"
viewBox="0 0 175 175"
 xmlns:xlink="http://www.w3.org/1999/xlink">
 <g id="Capa_x0020_1">
  <metadata id="CorelCorpID_0Corel-Layer"/>
  <path id="letraslogos" fill="none" stroke="#C4C3C4" stroke-width="5" stroke-linecap="round" stroke-linejoin="round" stroke-miterlimit="22.9256" d="M87.2965 132.7632c3.8836,-24.9648 18.5629,-46.9527 40.1301,-60.111 -3.7354,1.7151 -7.7191,2.7729 -11.8293,2.7729 -15.7618,0 -28.5389,-12.7773 -28.5389,-28.5389 0,-15.7618 12.7771,-28.5389 28.5389,-28.5389 15.7616,0 28.5389,12.7771 28.5389,28.5389 0,1.4154 -0.2021,2.8141 -0.4116,4.2138 -1.601,7.682 -2.4074,15.5077 -2.4074,23.3549 0,20.1002 5.2908,39.8457 15.3405,57.2531m-69.8775 1.0552c-3.8835,-24.9648 -18.5626,-46.9527 -40.13,-60.111 3.7353,1.7151 7.719,2.7729 11.8293,2.7729 15.7617,0 28.539,-12.7773 28.539,-28.5389 0,-15.7618 -12.7773,-28.5389 -28.539,-28.5389 -15.7617,0 -28.5389,12.7771 -28.5389,28.5389 0,1.4154 0.202,2.8141 0.4116,4.2138 1.6009,7.682 2.4074,15.5077 2.4074,23.3549 0,20.1002 -5.2908,39.8457 -15.3404,57.2531"/>
  <path id="apendiseslogos" fill="none" stroke="#C4C3C4" stroke-width="2" stroke-linecap="round" stroke-linejoin="round" stroke-miterlimit="22.9256" d="M156.6577 131.708c-12.842,-17.6028 -24.1202,-26.7659 -34.8986,-32.0487m-34.4632 -9.3793c12.0913,-2.4844 24.9917,-6.3192 40.1307,-17.6278m-110.0074 59.0558c12.842,-17.6028 24.1202,-26.7659 34.8985,-32.0487"/>
  <path id="textologo" fill="#C4C3C4" fill-rule="nonzero" stroke="#C4C3C4" stroke-width="0.5" stroke-linecap="round" stroke-linejoin="round" stroke-miterlimit="22.9256" d="M52.6442 149.2161l0.5637 -0.5784 3.502 2.9263 -3.502 2.9261 -0.5637 -0.573 2.8385 -2.3423 -2.8385 -2.3587zm0 0l0.5637 -0.5784 3.502 2.9263 -3.502 2.9261 -0.5637 -0.573 2.8385 -2.3423 -2.8385 -2.3587zm-33.4628 0.8153l-1.5473 0 0 -0.7476 2.465 0 0 4.4748 1.558 0 0 0.7583 -4.1937 0 0 -0.7583 1.718 0 0 -3.7272zm0.32 -2.9475c0.1016,0 0.1959,0.0178 0.2813,0.0551 0.0869,0.0357 0.1634,0.0873 0.2277,0.1531 0.0637,0.0677 0.1154,0.1424 0.151,0.2279 0.0375,0.0854 0.0553,0.1779 0.0553,0.2795 0,0.0978 -0.0178,0.1903 -0.0553,0.2757 -0.0356,0.0873 -0.0873,0.1638 -0.151,0.2315 -0.0643,0.066 -0.1408,0.1175 -0.2277,0.1531 -0.0854,0.0373 -0.1797,0.0551 -0.2813,0.0551 -0.1011,0 -0.1955,-0.0178 -0.2808,-0.0551 -0.0871,-0.0356 -0.1638,-0.0871 -0.2277,-0.1531 -0.0641,-0.0677 -0.1156,-0.1442 -0.1512,-0.2315 -0.0375,-0.0854 -0.0551,-0.1779 -0.0551,-0.2757 0,-0.1016 0.0176,-0.1941 0.0551,-0.2795 0.0356,-0.0855 0.0871,-0.1602 0.1512,-0.2279 0.0639,-0.0658 0.1406,-0.1174 0.2277,-0.1531 0.0853,-0.0373 0.1797,-0.0551 0.2808,-0.0551zm4.2345 2.1999l0.8076 0 0.0372 0.8438c0.1531,-0.1797 0.3007,-0.3311 0.4429,-0.4521 0.1425,-0.1193 0.2811,-0.2154 0.4198,-0.2884 0.1369,-0.0747 0.2757,-0.1246 0.4179,-0.1548 0.1424,-0.0303 0.2898,-0.0445 0.4428,-0.0445 0.5391,0 0.9463,0.1583 1.2218,0.477 0.2759,0.3186 0.4145,0.7974 0.4145,1.4364l0 3.4157 -0.907 0 0 -3.3445c0,-0.4112 -0.0765,-0.7138 -0.2293,-0.9094 -0.153,-0.1977 -0.3806,-0.2955 -0.6814,-0.2955 -0.1118,0 -0.2204,0.0159 -0.3253,0.0497 -0.1068,0.032 -0.2171,0.0908 -0.3311,0.1727 -0.1154,0.0819 -0.24,0.1923 -0.3732,0.331 -0.1334,0.1388 -0.283,0.3133 -0.4501,0.5216l0 3.4744 -0.9071 0 0 -5.2331zm10.8079 2.5222c0,0.4664 -0.0657,0.8722 -0.1955,1.2211 -0.1298,0.3471 -0.3095,0.6354 -0.539,0.865 -0.2293,0.2296 -0.4997,0.4023 -0.8126,0.5162 -0.3131,0.1156 -0.651,0.1727 -1.0157,0.1727 -0.1671,0 -0.3344,-0.0088 -0.4978,-0.0266 -0.1654,-0.018 -0.3329,-0.0483 -0.5036,-0.0891l0 2.1874 -0.9071 0 0 -7.3689 0.8078 0 0.0585 0.8759c0.2598,-0.3596 0.5372,-0.6105 0.8324,-0.7549 0.2953,-0.1441 0.6154,-0.217 0.9585,-0.217 0.299,0 0.562,0.0623 0.7879,0.1885 0.226,0.1247 0.4145,0.3009 0.5675,0.5287 0.1528,0.228 0.2686,0.502 0.3451,0.8242 0.0763,0.3222 0.1136,0.68 0.1136,1.0768zm-0.9282 0.0391c0,-0.2739 -0.0196,-0.5267 -0.0605,-0.7565 -0.0392,-0.2294 -0.1031,-0.4253 -0.1903,-0.589 -0.0855,-0.1639 -0.1974,-0.2919 -0.3326,-0.3828 -0.1353,-0.0924 -0.2971,-0.1387 -0.4838,-0.1387 -0.1156,0 -0.2311,0.0177 -0.3505,0.0551 -0.1174,0.0357 -0.2399,0.098 -0.3662,0.1815 -0.1263,0.0854 -0.2616,0.1994 -0.402,0.34 -0.1404,0.1406 -0.29,0.3151 -0.4501,0.5235l0 2.5416c0.1673,0.0694 0.3416,0.1246 0.5267,0.1639 0.1831,0.0409 0.3645,0.0603 0.5405,0.0603 0.4908,0 0.8732,-0.1655 1.1526,-0.4984 0.2774,-0.3326 0.4162,-0.8312 0.4162,-1.5005zm6.9982 2.6718l-0.8128 0 -0.0321 -0.8438c-0.1564,0.1799 -0.3042,0.3311 -0.4446,0.4521 -0.1404,0.1193 -0.281,0.2154 -0.4196,0.2884 -0.1386,0.0747 -0.2793,0.1246 -0.4199,0.1548 -0.1404,0.0303 -0.288,0.0447 -0.4446,0.0447 -0.5389,0 -0.9443,-0.1585 -1.22,-0.4752 -0.2739,-0.3153 -0.4107,-0.7939 -0.4107,-1.433l0 -3.4211 0.9068 0 0 3.3462c0,0.8029 0.3025,1.2034 0.9072,1.2034 0.1103,0 0.2187,-0.0161 0.3236,-0.0497 0.1068,-0.0322 0.2171,-0.0909 0.3345,-0.1709 0.1154,-0.0821 0.2418,-0.1923 0.3752,-0.3311 0.1334,-0.1389 0.2828,-0.3152 0.4498,-0.5271l0 -3.4708 0.9072 0 0 5.2331zm6.3472 -0.0747c-0.2043,0.0533 -0.4162,0.0907 -0.6349,0.1138 -0.2187,0.0232 -0.4409,0.0356 -0.667,0.0356 -0.6562,0 -1.1453,-0.1494 -1.4672,-0.4467 -0.3235,-0.2973 -0.4838,-0.7529 -0.4838,-1.3687l0 -2.7341 -1.4637 0 0 -0.7583 1.4637 0 0 -1.4416 0.907 -0.2352 0 1.6768 2.3459 0 0 0.7583 -2.3459 0 0 2.6592c0,0.3756 0.0998,0.6569 0.2991,0.8418 0.1991,0.1871 0.4925,0.2795 0.8819,0.2795 0.1656,0 0.3487,-0.0123 0.5462,-0.0389 0.1975,-0.0251 0.4036,-0.0661 0.6187,-0.1212l0 0.7797zm-27.7796 -4.4108l-1.5473 0 0 -0.7476 2.465 0 0 4.4748 1.558 0 0 0.7583 -4.1937 0 0 -0.7583 1.718 0 0 -3.7272zm0.32 -2.9475c0.1016,0 0.1959,0.0178 0.2813,0.0551 0.0869,0.0357 0.1634,0.0873 0.2277,0.1531 0.0637,0.0677 0.1154,0.1424 0.151,0.2279 0.0375,0.0854 0.0553,0.1779 0.0553,0.2795 0,0.0978 -0.0178,0.1903 -0.0553,0.2757 -0.0356,0.0873 -0.0873,0.1638 -0.151,0.2315 -0.0643,0.066 -0.1408,0.1175 -0.2277,0.1531 -0.0854,0.0373 -0.1797,0.0551 -0.2813,0.0551 -0.1011,0 -0.1955,-0.0178 -0.2808,-0.0551 -0.0871,-0.0356 -0.1638,-0.0871 -0.2277,-0.1531 -0.0641,-0.0677 -0.1156,-0.1442 -0.1512,-0.2315 -0.0375,-0.0854 -0.0551,-0.1779 -0.0551,-0.2757 0,-0.1016 0.0176,-0.1941 0.0551,-0.2795 0.0356,-0.0855 0.0871,-0.1602 0.1512,-0.2279 0.0639,-0.0658 0.1406,-0.1174 0.2277,-0.1531 0.0853,-0.0373 0.1797,-0.0551 0.2808,-0.0551zm4.2345 2.1999l0.8076 0 0.0372 0.8438c0.1531,-0.1797 0.3007,-0.3311 0.4429,-0.4521 0.1425,-0.1193 0.2811,-0.2154 0.4198,-0.2884 0.1369,-0.0747 0.2757,-0.1246 0.4179,-0.1548 0.1424,-0.0303 0.2898,-0.0445 0.4428,-0.0445 0.5391,0 0.9463,0.1583 1.2218,0.477 0.2759,0.3186 0.4145,0.7974 0.4145,1.4364l0 3.4157 -0.907 0 0 -3.3445c0,-0.4112 -0.0765,-0.7138 -0.2293,-0.9094 -0.153,-0.1977 -0.3806,-0.2955 -0.6814,-0.2955 -0.1118,0 -0.2204,0.0159 -0.3253,0.0497 -0.1068,0.032 -0.2171,0.0908 -0.3311,0.1727 -0.1154,0.0819 -0.24,0.1923 -0.3732,0.331 -0.1334,0.1388 -0.283,0.3133 -0.4501,0.5216l0 3.4744 -0.9071 0 0 -5.2331zm10.8079 2.5222c0,0.4664 -0.0657,0.8722 -0.1955,1.2211 -0.1298,0.3471 -0.3095,0.6354 -0.539,0.865 -0.2293,0.2296 -0.4997,0.4023 -0.8126,0.5162 -0.3131,0.1156 -0.651,0.1727 -1.0157,0.1727 -0.1671,0 -0.3344,-0.0088 -0.4978,-0.0266 -0.1654,-0.018 -0.3329,-0.0483 -0.5036,-0.0891l0 2.1874 -0.9071 0 0 -7.3689 0.8078 0 0.0585 0.8759c0.2598,-0.3596 0.5372,-0.6105 0.8324,-0.7549 0.2953,-0.1441 0.6154,-0.217 0.9585,-0.217 0.299,0 0.562,0.0623 0.7879,0.1885 0.226,0.1247 0.4145,0.3009 0.5675,0.5287 0.1528,0.228 0.2686,0.502 0.3451,0.8242 0.0763,0.3222 0.1136,0.68 0.1136,1.0768zm-0.9282 0.0391c0,-0.2739 -0.0196,-0.5267 -0.0605,-0.7565 -0.0392,-0.2294 -0.1031,-0.4253 -0.1903,-0.589 -0.0855,-0.1639 -0.1974,-0.2919 -0.3326,-0.3828 -0.1353,-0.0924 -0.2971,-0.1387 -0.4838,-0.1387 -0.1156,0 -0.2311,0.0177 -0.3505,0.0551 -0.1174,0.0357 -0.2399,0.098 -0.3662,0.1815 -0.1263,0.0854 -0.2616,0.1994 -0.402,0.34 -0.1404,0.1406 -0.29,0.3151 -0.4501,0.5235l0 2.5416c0.1673,0.0694 0.3416,0.1246 0.5267,0.1639 0.1831,0.0409 0.3645,0.0603 0.5405,0.0603 0.4908,0 0.8732,-0.1655 1.1526,-0.4984 0.2774,-0.3326 0.4162,-0.8312 0.4162,-1.5005zm6.9982 2.6718l-0.8128 0 -0.0321 -0.8438c-0.1564,0.1799 -0.3042,0.3311 -0.4446,0.4521 -0.1404,0.1193 -0.281,0.2154 -0.4196,0.2884 -0.1386,0.0747 -0.2793,0.1246 -0.4199,0.1548 -0.1404,0.0303 -0.288,0.0447 -0.4446,0.0447 -0.5389,0 -0.9443,-0.1585 -1.22,-0.4752 -0.2739,-0.3153 -0.4107,-0.7939 -0.4107,-1.433l0 -3.4211 0.9068 0 0 3.3462c0,0.8029 0.3025,1.2034 0.9072,1.2034 0.1103,0 0.2187,-0.0161 0.3236,-0.0497 0.1068,-0.0322 0.2171,-0.0909 0.3345,-0.1709 0.1154,-0.0821 0.2418,-0.1923 0.3752,-0.3311 0.1334,-0.1389 0.2828,-0.3152 0.4498,-0.5271l0 -3.4708 0.9072 0 0 5.2331zm6.3472 -0.0747c-0.2043,0.0533 -0.4162,0.0907 -0.6349,0.1138 -0.2187,0.0232 -0.4409,0.0356 -0.667,0.0356 -0.6562,0 -1.1453,-0.1494 -1.4672,-0.4467 -0.3235,-0.2973 -0.4838,-0.7529 -0.4838,-1.3687l0 -2.7341 -1.4637 0 0 -0.7583 1.4637 0 0 -1.4416 0.907 -0.2352 0 1.6768 2.3459 0 0 0.7583 -2.3459 0 0 2.6592c0,0.3756 0.0998,0.6569 0.2991,0.8418 0.1991,0.1871 0.4925,0.2795 0.8819,0.2795 0.1656,0 0.3487,-0.0123 0.5462,-0.0389 0.1975,-0.0251 0.4036,-0.0661 0.6187,-0.1212l0 0.7797zm20.917 -5.1691l-0.7558 5.233 -1.101 0 -0.7559 -2.1928 -0.1511 -0.534 -0.1724 0.5642 -0.7223 2.1626 -1.0686 0 -0.7579 -5.233 0.8857 0 0.4393 3.5598 0.0943 0.7869 0.2241 -0.6872 0.7594 -2.3565 0.6527 0 0.8183 2.3245 0.2347 0.689 0.0783 -0.7298 0.4018 -3.5867 0.8964 0zm6.0433 2.5756c0,0.4059 -0.057,0.7796 -0.1724,1.1178 -0.114,0.34 -0.2794,0.6301 -0.4946,0.8721 -0.2153,0.2402 -0.4785,0.4289 -0.7861,0.5625 -0.3095,0.1335 -0.6616,0.2012 -1.0528,0.2012 -0.3754,0 -0.7115,-0.0587 -1.0087,-0.1746 -0.2968,-0.1173 -0.5494,-0.2882 -0.7557,-0.5144 -0.2063,-0.2258 -0.3644,-0.5054 -0.4749,-0.84 -0.1084,-0.3328 -0.1635,-0.7174 -0.1635,-1.1517 0,-0.4075 0.0569,-0.7795 0.1724,-1.1141 0.1139,-0.3365 0.2793,-0.6248 0.4946,-0.867 0.2151,-0.2402 0.4784,-0.4289 0.7859,-0.5623 0.3096,-0.1335 0.6616,-0.2012 1.053,-0.2012 0.3752,0 0.7115,0.0589 1.0084,0.1745 0.297,0.1174 0.5496,0.2865 0.7559,0.5109 0.2063,0.2243 0.3645,0.5036 0.4749,0.8381 0.1083,0.333 0.1636,0.7157 0.1636,1.1482zm-0.9286 0.0374c0,-0.3221 -0.0356,-0.6052 -0.1065,-0.8472 -0.0713,-0.2422 -0.1727,-0.4433 -0.3043,-0.6052 -0.1332,-0.1621 -0.2934,-0.2831 -0.4819,-0.3648 -0.1905,-0.082 -0.4002,-0.123 -0.6332,-0.123 -0.2701,0 -0.5031,0.0535 -0.6953,0.1585 -0.1921,0.1069 -0.3504,0.2492 -0.4732,0.4254 -0.1246,0.178 -0.2133,0.3845 -0.272,0.6193 -0.0569,0.235 -0.0853,0.4806 -0.0853,0.737 0,0.324 0.0354,0.6088 0.1065,0.8508 0.0714,0.2439 0.1725,0.4466 0.3044,0.6087 0.1333,0.162 0.2915,0.283 0.48,0.365 0.1867,0.0817 0.3982,0.1226 0.6349,0.1226 0.2703,0 0.5034,-0.0533 0.6955,-0.1581 0.1919,-0.107 0.3503,-0.2494 0.4731,-0.4255 0.1244,-0.1781 0.2135,-0.3846 0.2722,-0.6196 0.0567,-0.2349 0.0851,-0.4823 0.0851,-0.7439zm2.9219 -2.613l0.8289 0 0.0266 0.9647c0.3095,-0.3719 0.6138,-0.6425 0.9142,-0.8098 0.3007,-0.1673 0.6047,-0.251 0.9108,-0.251 0.5406,0 0.9513,0.1761 1.2324,0.5269 0.2794,0.3524 0.409,0.874 0.3878,1.5662l-0.9176 0c0.0104,-0.461 -0.0571,-0.7937 -0.2011,-1.0019 -0.1442,-0.2083 -0.3559,-0.3115 -0.6333,-0.3115 -0.1208,0 -0.2436,0.0214 -0.3662,0.0659 -0.1245,0.0425 -0.2508,0.112 -0.3807,0.2081 -0.1316,0.0962 -0.2685,0.219 -0.4145,0.3703 -0.1456,0.1494 -0.3024,0.3311 -0.4695,0.5445l0 3.3606 -0.9178 0 0 -5.233zm10.8294 5.233l-1.2485 0 -2.433 -2.8051 0 2.8051 -0.907 0 0 -7.3689 0.907 0 0 4.5264 2.3477 -2.3905 1.195 0 -2.4435 2.4119 2.5823 2.8211zm4.9066 -6.6445c-0.1047,-0.016 -0.2063,-0.0284 -0.3076,-0.0337 -0.1013,-0.0054 -0.2063,-0.0072 -0.3183,-0.0072 -0.4749,0 -0.8289,0.1086 -1.0584,0.3274 -0.2293,0.2191 -0.3431,0.5449 -0.3431,0.9756l0 0.6727 1.1097 0 0 0.7583 -1.1097 0 0 3.9514 -0.9071 0 0 -3.9514 -0.9284 0 0 -0.7583 0.9284 0 0 -0.6194c0,-0.6994 0.1975,-1.2228 0.594,-1.5717 0.3949,-0.3471 0.9765,-0.5214 1.7431,-0.5214 0.2257,0 0.4641,0.0106 0.7168,0.0337 0.2508,0.0232 0.5138,0.0641 0.7878,0.1228l0 7.2657 -0.9072 0 0 -6.6445zm7.6174 3.9871c0,0.4059 -0.0569,0.7796 -0.1725,1.1178 -0.1139,0.34 -0.2792,0.6301 -0.4945,0.8721 -0.2152,0.2402 -0.4785,0.4289 -0.7862,0.5625 -0.3093,0.1335 -0.6616,0.2012 -1.0528,0.2012 -0.3753,0 -0.7114,-0.0587 -1.0085,-0.1746 -0.297,-0.1173 -0.5494,-0.2882 -0.7557,-0.5144 -0.2065,-0.2258 -0.3647,-0.5054 -0.4751,-0.84 -0.1086,-0.3328 -0.1634,-0.7174 -0.1634,-1.1517 0,-0.4075 0.0568,-0.7795 0.1724,-1.1141 0.1138,-0.3365 0.2792,-0.6248 0.4945,-0.867 0.2151,-0.2402 0.4783,-0.4289 0.786,-0.5623 0.3095,-0.1335 0.6616,-0.2012 1.053,-0.2012 0.3753,0 0.7112,0.0589 1.0083,0.1745 0.2972,0.1174 0.5496,0.2865 0.7561,0.5109 0.2063,0.2243 0.3644,0.5036 0.4747,0.8381 0.1084,0.333 0.1637,0.7157 0.1637,1.1482zm-0.9286 0.0374c0,-0.3221 -0.0355,-0.6052 -0.1068,-0.8472 -0.0709,-0.2422 -0.1724,-0.4433 -0.304,-0.6052 -0.1334,-0.1621 -0.2933,-0.2831 -0.4819,-0.3648 -0.1904,-0.082 -0.4002,-0.123 -0.6332,-0.123 -0.2704,0 -0.5033,0.0535 -0.6954,0.1585 -0.1921,0.1069 -0.3503,0.2492 -0.4731,0.4254 -0.1245,0.178 -0.2133,0.3845 -0.2721,0.6193 -0.0569,0.235 -0.0855,0.4806 -0.0855,0.737 0,0.324 0.0357,0.6088 0.1068,0.8508 0.0713,0.2439 0.1726,0.4466 0.3042,0.6087 0.1335,0.162 0.2916,0.283 0.4802,0.365 0.1868,0.0817 0.3983,0.1226 0.6349,0.1226 0.2704,0 0.5034,-0.0533 0.6955,-0.1581 0.192,-0.107 0.3503,-0.2494 0.473,-0.4255 0.1246,-0.1781 0.2136,-0.3846 0.2722,-0.6196 0.0569,-0.2349 0.0852,-0.4823 0.0852,-0.7439zm7.5586 -2.613l-0.7559 5.233 -1.1009 0 -0.7557 -2.1928 -0.1514 -0.534 -0.1723 0.5642 -0.7222 2.1626 -1.0688 0 -0.7578 -5.233 0.8858 0 0.4394 3.5598 0.0941 0.7869 0.224 -0.6872 0.7595 -2.3565 0.6528 0 0.8182 2.3245 0.2346 0.689 0.0783 -0.7298 0.402 -3.5867 0.8963 0zm-38.02 0l-0.7558 5.233 -1.101 0 -0.7559 -2.1928 -0.1511 -0.534 -0.1724 0.5642 -0.7223 2.1626 -1.0686 0 -0.7579 -5.233 0.8857 0 0.4393 3.5598 0.0943 0.7869 0.2241 -0.6872 0.7594 -2.3565 0.6527 0 0.8183 2.3245 0.2347 0.689 0.0783 -0.7298 0.4018 -3.5867 0.8964 0zm6.0433 2.5756c0,0.4059 -0.057,0.7796 -0.1724,1.1178 -0.114,0.34 -0.2794,0.6301 -0.4946,0.8721 -0.2153,0.2402 -0.4785,0.4289 -0.7861,0.5625 -0.3095,0.1335 -0.6616,0.2012 -1.0528,0.2012 -0.3754,0 -0.7115,-0.0587 -1.0087,-0.1746 -0.2968,-0.1173 -0.5494,-0.2882 -0.7557,-0.5144 -0.2063,-0.2258 -0.3644,-0.5054 -0.4749,-0.84 -0.1084,-0.3328 -0.1635,-0.7174 -0.1635,-1.1517 0,-0.4075 0.0569,-0.7795 0.1724,-1.1141 0.1139,-0.3365 0.2793,-0.6248 0.4946,-0.867 0.2151,-0.2402 0.4784,-0.4289 0.7859,-0.5623 0.3096,-0.1335 0.6616,-0.2012 1.053,-0.2012 0.3752,0 0.7115,0.0589 1.0084,0.1745 0.297,0.1174 0.5496,0.2865 0.7559,0.5109 0.2063,0.2243 0.3645,0.5036 0.4749,0.8381 0.1083,0.333 0.1636,0.7157 0.1636,1.1482zm-0.9286 0.0374c0,-0.3221 -0.0356,-0.6052 -0.1065,-0.8472 -0.0713,-0.2422 -0.1727,-0.4433 -0.3043,-0.6052 -0.1332,-0.1621 -0.2934,-0.2831 -0.4819,-0.3648 -0.1905,-0.082 -0.4002,-0.123 -0.6332,-0.123 -0.2701,0 -0.5031,0.0535 -0.6953,0.1585 -0.1921,0.1069 -0.3504,0.2492 -0.4732,0.4254 -0.1246,0.178 -0.2133,0.3845 -0.272,0.6193 -0.0569,0.235 -0.0853,0.4806 -0.0853,0.737 0,0.324 0.0354,0.6088 0.1065,0.8508 0.0714,0.2439 0.1725,0.4466 0.3044,0.6087 0.1333,0.162 0.2915,0.283 0.48,0.365 0.1867,0.0817 0.3982,0.1226 0.6349,0.1226 0.2703,0 0.5034,-0.0533 0.6955,-0.1581 0.1919,-0.107 0.3503,-0.2494 0.4731,-0.4255 0.1244,-0.1781 0.2135,-0.3846 0.2722,-0.6196 0.0567,-0.2349 0.0851,-0.4823 0.0851,-0.7439zm2.9219 -2.613l0.8289 0 0.0266 0.9647c0.3095,-0.3719 0.6138,-0.6425 0.9142,-0.8098 0.3007,-0.1673 0.6047,-0.251 0.9108,-0.251 0.5406,0 0.9513,0.1761 1.2324,0.5269 0.2794,0.3524 0.409,0.874 0.3878,1.5662l-0.9176 0c0.0104,-0.461 -0.0571,-0.7937 -0.2011,-1.0019 -0.1442,-0.2083 -0.3559,-0.3115 -0.6333,-0.3115 -0.1208,0 -0.2436,0.0214 -0.3662,0.0659 -0.1245,0.0425 -0.2508,0.112 -0.3807,0.2081 -0.1316,0.0962 -0.2685,0.219 -0.4145,0.3703 -0.1456,0.1494 -0.3024,0.3311 -0.4695,0.5445l0 3.3606 -0.9178 0 0 -5.233zm10.8294 5.233l-1.2485 0 -2.433 -2.8051 0 2.8051 -0.907 0 0 -7.3689 0.907 0 0 4.5264 2.3477 -2.3905 1.195 0 -2.4435 2.4119 2.5823 2.8211zm4.9066 -6.6445c-0.1047,-0.016 -0.2063,-0.0284 -0.3076,-0.0337 -0.1013,-0.0054 -0.2063,-0.0072 -0.3183,-0.0072 -0.4749,0 -0.8289,0.1086 -1.0584,0.3274 -0.2293,0.2191 -0.3431,0.5449 -0.3431,0.9756l0 0.6727 1.1097 0 0 0.7583 -1.1097 0 0 3.9514 -0.9071 0 0 -3.9514 -0.9284 0 0 -0.7583 0.9284 0 0 -0.6194c0,-0.6994 0.1975,-1.2228 0.594,-1.5717 0.3949,-0.3471 0.9765,-0.5214 1.7431,-0.5214 0.2257,0 0.4641,0.0106 0.7168,0.0337 0.2508,0.0232 0.5138,0.0641 0.7878,0.1228l0 7.2657 -0.9072 0 0 -6.6445zm7.6174 3.9871c0,0.4059 -0.0569,0.7796 -0.1725,1.1178 -0.1139,0.34 -0.2792,0.6301 -0.4945,0.8721 -0.2152,0.2402 -0.4785,0.4289 -0.7862,0.5625 -0.3093,0.1335 -0.6616,0.2012 -1.0528,0.2012 -0.3753,0 -0.7114,-0.0587 -1.0085,-0.1746 -0.297,-0.1173 -0.5494,-0.2882 -0.7557,-0.5144 -0.2065,-0.2258 -0.3647,-0.5054 -0.4751,-0.84 -0.1086,-0.3328 -0.1634,-0.7174 -0.1634,-1.1517 0,-0.4075 0.0568,-0.7795 0.1724,-1.1141 0.1138,-0.3365 0.2792,-0.6248 0.4945,-0.867 0.2151,-0.2402 0.4783,-0.4289 0.786,-0.5623 0.3095,-0.1335 0.6616,-0.2012 1.053,-0.2012 0.3753,0 0.7112,0.0589 1.0083,0.1745 0.2972,0.1174 0.5496,0.2865 0.7561,0.5109 0.2063,0.2243 0.3644,0.5036 0.4747,0.8381 0.1084,0.333 0.1637,0.7157 0.1637,1.1482zm-0.9286 0.0374c0,-0.3221 -0.0355,-0.6052 -0.1068,-0.8472 -0.0709,-0.2422 -0.1724,-0.4433 -0.304,-0.6052 -0.1334,-0.1621 -0.2933,-0.2831 -0.4819,-0.3648 -0.1904,-0.082 -0.4002,-0.123 -0.6332,-0.123 -0.2704,0 -0.5033,0.0535 -0.6954,0.1585 -0.1921,0.1069 -0.3503,0.2492 -0.4731,0.4254 -0.1245,0.178 -0.2133,0.3845 -0.2721,0.6193 -0.0569,0.235 -0.0855,0.4806 -0.0855,0.737 0,0.324 0.0357,0.6088 0.1068,0.8508 0.0713,0.2439 0.1726,0.4466 0.3042,0.6087 0.1335,0.162 0.2916,0.283 0.4802,0.365 0.1868,0.0817 0.3983,0.1226 0.6349,0.1226 0.2704,0 0.5034,-0.0533 0.6955,-0.1581 0.192,-0.107 0.3503,-0.2494 0.473,-0.4255 0.1246,-0.1781 0.2136,-0.3846 0.2722,-0.6196 0.0569,-0.2349 0.0852,-0.4823 0.0852,-0.7439zm7.5586 -2.613l-0.7559 5.233 -1.1009 0 -0.7557 -2.1928 -0.1514 -0.534 -0.1723 0.5642 -0.7222 2.1626 -1.0688 0 -0.7578 -5.233 0.8858 0 0.4394 3.5598 0.0941 0.7869 0.224 -0.6872 0.7595 -2.3565 0.6528 0 0.8182 2.3245 0.2346 0.689 0.0783 -0.7298 0.402 -3.5867 0.8963 0zm20.341 2.3741c0,0.4059 -0.0569,0.7797 -0.1725,1.1179 -0.1138,0.34 -0.2792,0.6301 -0.4945,0.8721 -0.2151,0.2402 -0.4783,0.4289 -0.786,0.5623 -0.3095,0.1337 -0.6614,0.2014 -1.053,0.2014 -0.3752,0 -0.7112,-0.0588 -1.0085,-0.1746 -0.2968,-0.1173 -0.5494,-0.2882 -0.7557,-0.5144 -0.2063,-0.226 -0.3646,-0.5055 -0.4749,-0.84 -0.1086,-0.3329 -0.1635,-0.7174 -0.1635,-1.1517 0,-0.4075 0.0567,-0.7797 0.1723,-1.1141 0.1139,-0.3365 0.2794,-0.6249 0.4946,-0.867 0.2153,-0.2402 0.4784,-0.4289 0.7861,-0.5624 0.3093,-0.1334 0.6616,-0.2011 1.0528,-0.2011 0.3753,0 0.7115,0.0587 1.0085,0.1745 0.297,0.1173 0.5496,0.2865 0.7559,0.5108 0.2064,0.2244 0.3645,0.5036 0.4749,0.8382 0.1084,0.3328 0.1635,0.7157 0.1635,1.1481zm-0.9284 0.0375c0,-0.3223 -0.0357,-0.6052 -0.1066,-0.8474 -0.0713,-0.242 -0.1726,-0.4431 -0.3042,-0.6052 -0.1334,-0.1619 -0.2935,-0.2829 -0.482,-0.3648 -0.1903,-0.0818 -0.4002,-0.1228 -0.6333,-0.1228 -0.2702,0 -0.5031,0.0534 -0.6953,0.1585 -0.192,0.1067 -0.3503,0.2491 -0.4731,0.4253 -0.1245,0.178 -0.2133,0.3846 -0.272,0.6194 -0.057,0.235 -0.0855,0.4806 -0.0855,0.737 0,0.324 0.0355,0.6086 0.1068,0.8508 0.0713,0.2439 0.1726,0.4466 0.3042,0.6087 0.1334,0.162 0.2915,0.283 0.4801,0.3648 0.1869,0.0819 0.3984,0.1228 0.6348,0.1228 0.2706,0 0.5035,-0.0533 0.6956,-0.1583 0.1921,-0.1068 0.3503,-0.2492 0.4731,-0.4253 0.1245,-0.1781 0.2134,-0.3847 0.2721,-0.6196 0.057,-0.235 0.0853,-0.4823 0.0853,-0.7439zm6.913 2.62l-0.813 0 -0.032 -0.8438c-0.1565,0.1799 -0.3041,0.3311 -0.4443,0.4521 -0.1408,0.1194 -0.281,0.2154 -0.4198,0.2885 -0.1388,0.0747 -0.2794,0.1246 -0.4199,0.1547 -0.1405,0.0304 -0.288,0.0447 -0.4444,0.0447 -0.5392,0 -0.9446,-0.1585 -1.2204,-0.4754 -0.2738,-0.315 -0.4108,-0.7938 -0.4108,-1.4329l0 -3.4209 0.9071 0 0 3.3462c0,0.8028 0.3025,1.2033 0.9072,1.2033 0.1101,0 0.2187,-0.0161 0.3236,-0.0499 0.1068,-0.0319 0.217,-0.0908 0.3344,-0.1709 0.1155,-0.0818 0.2419,-0.1921 0.3753,-0.331 0.1332,-0.1388 0.2829,-0.3151 0.4499,-0.5269l0 -3.4708 0.9071 0 0 5.233zm6.3473 -0.0747c-0.2045,0.0533 -0.4162,0.0907 -0.6348,0.1138 -0.2189,0.0232 -0.4412,0.0356 -0.667,0.0356 -0.6563,0 -1.1455,-0.1494 -1.4673,-0.4467 -0.3238,-0.2973 -0.4838,-0.7529 -0.4838,-1.3687l0 -2.734 -1.4638 0 0 -0.7583 1.4638 0 0 -1.4418 0.907 -0.235 0 1.6768 2.3459 0 0 0.7583 -2.3459 0 0 2.6591c0,0.3756 0.0995,0.6569 0.2988,0.8419 0.1991,0.187 0.4927,0.2795 0.8822,0.2795 0.1654,0 0.3485,-0.0124 0.546,-0.0392 0.1975,-0.0249 0.4037,-0.0658 0.6189,-0.121l0 0.7797zm6.5928 -2.6362c0,0.4664 -0.0659,0.8722 -0.1957,1.2212 -0.1298,0.347 -0.3095,0.6353 -0.5389,0.8648 -0.2293,0.2298 -0.4997,0.4025 -0.8127,0.5163 -0.3131,0.1156 -0.651,0.1727 -1.0155,0.1727 -0.1673,0 -0.3346,-0.0088 -0.498,-0.0267 -0.1654,-0.0178 -0.3327,-0.0482 -0.5036,-0.0889l0 2.1874 -0.9067 0 0 -7.3689 0.8074 0 0.0587 0.8757c0.2596,-0.3596 0.537,-0.6106 0.8324,-0.7547 0.2951,-0.1442 0.6153,-0.2171 0.9584,-0.2171 0.2989,0 0.5621,0.0623 0.7878,0.1885 0.226,0.1248 0.4146,0.3009 0.5677,0.5287 0.1526,0.228 0.2684,0.502 0.3449,0.8242 0.0763,0.3223 0.1138,0.6799 0.1138,1.0768zm-0.9284 0.0392c0,-0.274 -0.0196,-0.5269 -0.0605,-0.7565 -0.0391,-0.2295 -0.103,-0.4254 -0.1903,-0.5891 -0.0853,-0.1639 -0.1973,-0.2919 -0.3325,-0.3827 -0.1354,-0.0925 -0.2971,-0.1388 -0.4839,-0.1388 -0.1156,0 -0.2311,0.0178 -0.3503,0.0551 -0.1175,0.0357 -0.24,0.0979 -0.3664,0.1815 -0.1262,0.0855 -0.2614,0.1995 -0.402,0.34 -0.1404,0.1406 -0.2896,0.3151 -0.4501,0.5234l0 2.5417c0.1675,0.0695 0.3417,0.1246 0.5268,0.1637 0.1831,0.0411 0.3644,0.0605 0.5404,0.0605 0.4909,0 0.8733,-0.1655 1.1526,-0.4983 0.2776,-0.3329 0.4162,-0.8312 0.4162,-1.5005zm6.9982 2.6717l-0.8127 0 -0.0322 -0.8438c-0.1564,0.1799 -0.3041,0.3311 -0.4445,0.4521 -0.1404,0.1194 -0.281,0.2154 -0.4196,0.2885 -0.1387,0.0747 -0.2794,0.1246 -0.42,0.1547 -0.1402,0.0304 -0.288,0.0447 -0.4445,0.0447 -0.5388,0 -0.9442,-0.1585 -1.22,-0.4754 -0.274,-0.315 -0.4108,-0.7938 -0.4108,-1.4329l0 -3.4209 0.907 0 0 3.3462c0,0.8028 0.3024,1.2033 0.9071,1.2033 0.1102,0 0.2187,-0.0161 0.3235,-0.0499 0.1069,-0.0319 0.2171,-0.0908 0.3345,-0.1709 0.1156,-0.0818 0.2419,-0.1921 0.3753,-0.331 0.1334,-0.1388 0.2827,-0.3151 0.4497,-0.5269l0 -3.4708 0.9072 0 0 5.233zm6.3472 -0.0747c-0.2043,0.0533 -0.416,0.0907 -0.6348,0.1138 -0.2187,0.0232 -0.441,0.0356 -0.667,0.0356 -0.6562,0 -1.1452,-0.1494 -1.4672,-0.4467 -0.3236,-0.2973 -0.4837,-0.7529 -0.4837,-1.3687l0 -2.734 -1.4638 0 0 -0.7583 1.4638 0 0 -1.4418 0.9068 -0.235 0 1.6768 2.3459 0 0 0.7583 -2.3459 0 0 2.6591c0,0.3756 0.0999,0.6569 0.2991,0.8419 0.1992,0.187 0.4925,0.2795 0.8821,0.2795 0.1654,0 0.3485,-0.0124 0.546,-0.0392 0.1975,-0.0249 0.4036,-0.0658 0.6187,-0.121l0 0.7797zm-31.3417 -2.5828c0,0.4059 -0.0569,0.7797 -0.1725,1.1179 -0.1138,0.34 -0.2792,0.6301 -0.4945,0.8721 -0.2151,0.2402 -0.4783,0.4289 -0.786,0.5623 -0.3095,0.1337 -0.6614,0.2014 -1.053,0.2014 -0.3752,0 -0.7112,-0.0588 -1.0085,-0.1746 -0.2968,-0.1173 -0.5494,-0.2882 -0.7557,-0.5144 -0.2063,-0.226 -0.3646,-0.5055 -0.4749,-0.84 -0.1086,-0.3329 -0.1635,-0.7174 -0.1635,-1.1517 0,-0.4075 0.0567,-0.7797 0.1723,-1.1141 0.1139,-0.3365 0.2794,-0.6249 0.4946,-0.867 0.2153,-0.2402 0.4784,-0.4289 0.7861,-0.5624 0.3093,-0.1334 0.6616,-0.2011 1.0528,-0.2011 0.3753,0 0.7115,0.0587 1.0085,0.1745 0.297,0.1173 0.5496,0.2865 0.7559,0.5108 0.2064,0.2244 0.3645,0.5036 0.4749,0.8382 0.1084,0.3328 0.1635,0.7157 0.1635,1.1481zm-0.9284 0.0375c0,-0.3223 -0.0357,-0.6052 -0.1066,-0.8474 -0.0713,-0.242 -0.1726,-0.4431 -0.3042,-0.6052 -0.1334,-0.1619 -0.2935,-0.2829 -0.482,-0.3648 -0.1903,-0.0818 -0.4002,-0.1228 -0.6333,-0.1228 -0.2702,0 -0.5031,0.0534 -0.6953,0.1585 -0.192,0.1067 -0.3503,0.2491 -0.4731,0.4253 -0.1245,0.178 -0.2133,0.3846 -0.272,0.6194 -0.057,0.235 -0.0855,0.4806 -0.0855,0.737 0,0.324 0.0355,0.6086 0.1068,0.8508 0.0713,0.2439 0.1726,0.4466 0.3042,0.6087 0.1334,0.162 0.2915,0.283 0.4801,0.3648 0.1869,0.0819 0.3984,0.1228 0.6348,0.1228 0.2706,0 0.5035,-0.0533 0.6956,-0.1583 0.1921,-0.1068 0.3503,-0.2492 0.4731,-0.4253 0.1245,-0.1781 0.2134,-0.3847 0.2721,-0.6196 0.057,-0.235 0.0853,-0.4823 0.0853,-0.7439zm6.913 2.62l-0.813 0 -0.032 -0.8438c-0.1565,0.1799 -0.3041,0.3311 -0.4443,0.4521 -0.1408,0.1194 -0.281,0.2154 -0.4198,0.2885 -0.1388,0.0747 -0.2794,0.1246 -0.4199,0.1547 -0.1405,0.0304 -0.288,0.0447 -0.4444,0.0447 -0.5392,0 -0.9446,-0.1585 -1.2204,-0.4754 -0.2738,-0.315 -0.4108,-0.7938 -0.4108,-1.4329l0 -3.4209 0.9071 0 0 3.3462c0,0.8028 0.3025,1.2033 0.9072,1.2033 0.1101,0 0.2187,-0.0161 0.3236,-0.0499 0.1068,-0.0319 0.217,-0.0908 0.3344,-0.1709 0.1155,-0.0818 0.2419,-0.1921 0.3753,-0.331 0.1332,-0.1388 0.2829,-0.3151 0.4499,-0.5269l0 -3.4708 0.9071 0 0 5.233zm6.3473 -0.0747c-0.2045,0.0533 -0.4162,0.0907 -0.6348,0.1138 -0.2189,0.0232 -0.4412,0.0356 -0.667,0.0356 -0.6563,0 -1.1455,-0.1494 -1.4673,-0.4467 -0.3238,-0.2973 -0.4838,-0.7529 -0.4838,-1.3687l0 -2.734 -1.4638 0 0 -0.7583 1.4638 0 0 -1.4418 0.907 -0.235 0 1.6768 2.3459 0 0 0.7583 -2.3459 0 0 2.6591c0,0.3756 0.0995,0.6569 0.2988,0.8419 0.1991,0.187 0.4927,0.2795 0.8822,0.2795 0.1654,0 0.3485,-0.0124 0.546,-0.0392 0.1975,-0.0249 0.4037,-0.0658 0.6189,-0.121l0 0.7797zm6.5928 -2.6362c0,0.4664 -0.0659,0.8722 -0.1957,1.2212 -0.1298,0.347 -0.3095,0.6353 -0.5389,0.8648 -0.2293,0.2298 -0.4997,0.4025 -0.8127,0.5163 -0.3131,0.1156 -0.651,0.1727 -1.0155,0.1727 -0.1673,0 -0.3346,-0.0088 -0.498,-0.0267 -0.1654,-0.0178 -0.3327,-0.0482 -0.5036,-0.0889l0 2.1874 -0.9067 0 0 -7.3689 0.8074 0 0.0587 0.8757c0.2596,-0.3596 0.537,-0.6106 0.8324,-0.7547 0.2951,-0.1442 0.6153,-0.2171 0.9584,-0.2171 0.2989,0 0.5621,0.0623 0.7878,0.1885 0.226,0.1248 0.4146,0.3009 0.5677,0.5287 0.1526,0.228 0.2684,0.502 0.3449,0.8242 0.0763,0.3223 0.1138,0.6799 0.1138,1.0768zm-0.9284 0.0392c0,-0.274 -0.0196,-0.5269 -0.0605,-0.7565 -0.0391,-0.2295 -0.103,-0.4254 -0.1903,-0.5891 -0.0853,-0.1639 -0.1973,-0.2919 -0.3325,-0.3827 -0.1354,-0.0925 -0.2971,-0.1388 -0.4839,-0.1388 -0.1156,0 -0.2311,0.0178 -0.3503,0.0551 -0.1175,0.0357 -0.24,0.0979 -0.3664,0.1815 -0.1262,0.0855 -0.2614,0.1995 -0.402,0.34 -0.1404,0.1406 -0.2896,0.3151 -0.4501,0.5234l0 2.5417c0.1675,0.0695 0.3417,0.1246 0.5268,0.1637 0.1831,0.0411 0.3644,0.0605 0.5404,0.0605 0.4909,0 0.8733,-0.1655 1.1526,-0.4983 0.2776,-0.3329 0.4162,-0.8312 0.4162,-1.5005zm6.9982 2.6717l-0.8127 0 -0.0322 -0.8438c-0.1564,0.1799 -0.3041,0.3311 -0.4445,0.4521 -0.1404,0.1194 -0.281,0.2154 -0.4196,0.2885 -0.1387,0.0747 -0.2794,0.1246 -0.42,0.1547 -0.1402,0.0304 -0.288,0.0447 -0.4445,0.0447 -0.5388,0 -0.9442,-0.1585 -1.22,-0.4754 -0.274,-0.315 -0.4108,-0.7938 -0.4108,-1.4329l0 -3.4209 0.907 0 0 3.3462c0,0.8028 0.3024,1.2033 0.9071,1.2033 0.1102,0 0.2187,-0.0161 0.3235,-0.0499 0.1069,-0.0319 0.2171,-0.0908 0.3345,-0.1709 0.1156,-0.0818 0.2419,-0.1921 0.3753,-0.331 0.1334,-0.1388 0.2827,-0.3151 0.4497,-0.5269l0 -3.4708 0.9072 0 0 5.233zm6.3472 -0.0747c-0.2043,0.0533 -0.416,0.0907 -0.6348,0.1138 -0.2187,0.0232 -0.441,0.0356 -0.667,0.0356 -0.6562,0 -1.1452,-0.1494 -1.4672,-0.4467 -0.3236,-0.2973 -0.4837,-0.7529 -0.4837,-1.3687l0 -2.734 -1.4638 0 0 -0.7583 1.4638 0 0 -1.4418 0.9068 -0.235 0 1.6768 2.3459 0 0 0.7583 -2.3459 0 0 2.6591c0,0.3756 0.0999,0.6569 0.2991,0.8419 0.1992,0.187 0.4925,0.2795 0.8821,0.2795 0.1654,0 0.3485,-0.0124 0.546,-0.0392 0.1975,-0.0249 0.4036,-0.0658 0.6187,-0.121l0 0.7797zm-45.9991 -5.0139l0.5638 -0.5784 3.5021 2.9263 -3.5021 2.9261 -0.5638 -0.573 2.8388 -2.3423 -2.8388 -2.3587zm0 0l0.5638 -0.5784 3.5021 2.9263 -3.5021 2.9261 -0.5638 -0.573 2.8388 -2.3423 -2.8388 -2.3587z"/>
  <path id="marco" fill="none" fill-rule="nonzero" stroke="#C4C3C4" stroke-width="5" stroke-linecap="round" stroke-linejoin="round" stroke-miterlimit="22.9256" d="M25.2 174.9997l-25.2 0.0003 0.0003 -25.2m174.9997 0l0 25.2 -25.2 0m0 -175l25.2 0 0 25.2m-175 0l0 -25.2 25.2 0"/>
 </g>
</svg>
