<?xml version="1.0" encoding="UTF-8"?>
<!DOCTYPE svg PUBLIC "-//W3C//DTD SVG 1.1//EN" "http://www.w3.org/Graphics/SVG/1.1/DTD/svg11.dtd">
<!-- Creator: CorelDRAW 2018 (64 Bit) -->
<svg xmlns="http://www.w3.org/2000/svg" xml:space="preserve" width="175mm" height="175mm" version="1.1" shape-rendering="geometricPrecision" text-rendering="geometricPrecision" image-rendering="optimizeQuality" fill-rule="evenodd" clip-rule="evenodd"
viewBox="0 0 175 175"
 xmlns:xlink="http://www.w3.org/1999/xlink">
 <g id="Capa_x0020_1">
  <metadata id="CorelCorpID_0Corel-Layer"/>
  <path id="Whatsapp.svg" fill="#C4C3C4" d="M149.2038 25.4301c-16.3696,-16.3906 -38.141,-25.4217 -61.3382,-25.4301 -47.7996,0 -86.7014,38.8978 -86.7181,86.71 -0.0084,15.2846 3.9875,30.2033 11.5758,43.351l-12.3035 44.939 45.9704 -12.0581c12.665,6.9108 26.9267,10.5487 41.4383,10.5531l0.0371 0c47.7916,0 86.698,-38.902 86.7144,-86.7144 0.0082,-23.172 -9.0022,-44.9556 -25.3762,-61.3464l0 -0.0041zm-61.3382 133.4205l-0.0289 0c-12.9316,-0.0039 -25.6172,-3.4803 -36.6855,-10.0457l-2.6321 -1.563 -27.2804 7.1555 7.2806 -26.5986 -1.7131 -2.7276c-7.2142,-11.4756 -11.0269,-24.7399 -11.0186,-38.3568 0.0166,-39.7378 32.349,-72.0701 72.1076,-72.0701 19.2509,0.0084 37.3467,7.5135 50.9554,21.1391 13.6091,13.6216 21.0976,31.7337 21.0893,50.989 -0.017,39.742 -32.3488,72.0743 -72.0743,72.0743l0 0.0039zm39.5339 -53.9785c-2.1663,-1.0852 -12.8187,-6.3245 -14.8064,-7.0478 -1.9874,-0.7237 -3.43,-1.085 -4.8732,1.0852 -1.4427,2.1707 -5.5964,7.0519 -6.8604,8.4946 -1.2642,1.447 -2.5282,1.626 -4.6946,0.5405 -2.1659,-1.0852 -9.1473,-3.372 -17.4257,-10.7526 -6.4405,-5.7463 -10.7902,-12.8394 -12.0539,-15.0101 -1.2642,-2.1702 -0.1331,-3.343 0.9477,-4.4198 0.9729,-0.9729 2.1664,-2.5322 3.2516,-3.7962 1.0855,-1.2642 1.443,-2.1702 2.1663,-3.6134 0.7237,-1.447 0.3619,-2.7105 -0.1784,-3.7962 -0.5409,-1.085 -4.8732,-11.7504 -6.6821,-16.0871 -1.759,-4.2243 -3.5465,-3.6505 -4.873,-3.7213 -1.2642,-0.0624 -2.7069,-0.0748 -4.1537,-0.0748 -1.4471,0 -3.7924,0.5405 -5.7798,2.7111 -1.9873,2.1702 -7.5842,7.4134 -7.5842,18.0744 0,10.661 7.7632,20.9689 8.8484,22.4159 1.085,1.4469 15.28,23.3302 37.0138,32.7189 5.1686,2.2326 9.2059,3.5673 12.3534,4.5653 5.1893,1.6507 9.9126,1.418 13.6463,0.8607 4.1624,-0.6235 12.8193,-5.2431 14.6238,-10.3036 1.8043,-5.0602 1.8043,-9.4011 1.264,-10.3035 -0.5403,-0.9021 -1.9874,-1.4468 -4.1537,-2.532l0.0038 -0.0082z"/>
 </g>
</svg>
